<svg xmlns="http://www.w3.org/2000/svg" version="1.1" xmlns:xlink="http://www.w3.org/1999/xlink" xmlns:svgjs="http://svgjs.dev/svgjs" width="2000" height="712" viewBox="0 0 2000 712"><g transform="matrix(1,0,0,1,-1.2121212121212466,-0.17396077949473465)"><svg viewBox="0 0 396 141" data-background-color="#ffffff" preserveAspectRatio="xMidYMid meet" height="712" width="2000" xmlns="http://www.w3.org/2000/svg" xmlns:xlink="http://www.w3.org/1999/xlink"><g id="tight-bounds" transform="matrix(1,0,0,1,0.2400000000000091,0.03445009818645417)"><svg viewBox="0 0 395.52 140.9310998036271" height="140.9310998036271" width="395.52"><g><svg viewBox="0 0 395.52 140.9310998036271" height="140.9310998036271" width="395.52"><g><svg viewBox="0 0 395.52 140.9310998036271" height="140.9310998036271" width="395.52"><g><svg viewBox="0 0 395.52 140.9310998036271" height="140.9310998036271" width="395.52"><g id="textblocktransform"><svg viewBox="0 0 395.52 140.9310998036271" height="140.9310998036271" width="395.52" id="textblock"><g><rect width="395.52" height="105.13602806157422" fill="none" stroke-width="9.018103199999999" stroke="#ffffff" data-fill-palette-color="none" data-stroke-palette-color="tertiary"></rect><rect width="395.52" height="35.79507174205287" y="105.13602806157422" fill="#ffffff" data-fill-palette-color="tertiary"></rect></g><g><svg viewBox="0 0 395.52 105.13602806157422" height="105.13602806157422" width="395.52"><g transform="matrix(1,0,0,1,23.607599999999998,23.607599999999998)"><svg width="348.3048" viewBox="4.2 -35.6 289.21760472739976 48.1" height="57.92082806157423" data-palette-color="#336a86"><g transform="matrix(1,0,0,1,0,0)"><g><svg width="6.04549670462487" viewBox="3.18 -8.03 8.52 8.49" height="6.020307135022267" data-palette-color="#336a86" id="scriptelement" x="286.1200463750874" y="-34.33534356751113"><path d="M7.44 0.46L7.44 0.46Q5.68 0.46 4.43-0.79 3.18-2.04 3.18-3.8L3.18-3.8Q3.18-5.54 4.43-6.78 5.68-8.03 7.44-8.03L7.44-8.03Q9.14-8.03 10.42-6.78 11.7-5.54 11.7-3.8L11.7-3.8Q11.7-2.63 11.11-1.66 10.51-0.69 9.55-0.12 8.59 0.46 7.44 0.46Z" opacity="1" transform="matrix(1,0,0,1,0,0)" fill="#ffffff" class="undefined-123" data-fill-palette-color="primary" id="tk-123"></path></svg></g></g><path d="M284.868-31.325C284.868-33.686 286.782-35.6 289.143-35.6 291.504-35.6 293.418-33.686 293.418-31.325 293.418-28.964 291.504-27.05 289.143-27.05 286.782-27.05 284.868-28.964 284.868-31.325ZM289.143-27.45C291.283-27.45 293.018-29.185 293.018-31.325 293.018-33.465 291.283-35.2 289.143-35.2 287.003-35.2 285.268-33.465 285.268-31.325 285.268-29.185 287.003-27.45 289.143-27.45Z" fill="#ffffff" id="scriptcircle" data-fill-palette-color="primary"></path><path d="M10.4 0L4.2 0 4.2-35.45 4.7-35.45 18.8-18.82 32.8-35.45 33.35-35.45 33.35 0 27.15 0 27.15-14.95 27.38-20.85 25.6-18.15 18.75-10.1 11.9-18.15 10.13-20.85 10.4-14.95 10.4 0ZM48.05-28.95L41.05-28.95 41.05-35.6 48.05-35.6 48.05-28.95ZM47.8 0L41.3 0 41.3-24.9 47.8-24.9 47.8 0ZM65.05 0.6L65.05 0.6Q61.07 0.6 58.57-1.19 56.07-2.98 54.88-5.93 53.7-8.88 53.7-12.35L53.7-12.35Q53.7-15.8 55.02-18.8 56.35-21.8 58.95-23.65 61.55-25.5 65.4-25.5L65.4-25.5Q67.55-25.5 69.3-25.05 71.05-24.6 72.7-23.25L72.7-23.25 70.65-17.95Q69.9-19.07 68.46-19.69 67.02-20.3 65.75-20.3L65.75-20.3Q60.3-20.3 60.3-12.4L60.3-12.4Q60.3-8.25 61.66-6.38 63.02-4.5 65.75-4.5L65.75-4.5Q67.55-4.5 68.92-5.19 70.3-5.88 71-6.65L71-6.65 72.9-2.2Q72.2-1.45 70.15-0.43 68.1 0.6 65.05 0.6ZM84.59-28.95L77.59-28.95 77.59-35.6 84.59-35.6 84.59-28.95ZM84.34 0L77.84 0 77.84-24.9 84.34-24.9 84.34 0ZM98.19 0L91.79 0 91.79-24.9 97.59-24.9 97.72-21.63Q98.69-23.13 100.44-24.31 102.19-25.5 105.04-25.5L105.04-25.5Q108.84-25.5 110.69-23.1 112.54-20.7 112.54-16.45L112.54-16.45 112.54 0 106.14 0 106.14-15.9Q106.14-17.98 105.27-19.26 104.39-20.55 102.59-20.55L102.59-20.55Q100.84-20.55 99.52-19.26 98.19-17.98 98.19-15.9L98.19-15.9 98.19 0ZM136.19 0L129.74 0 129.74-34.85 139.09-34.85Q142.64-34.85 145.54-33.77 148.44-32.7 150.16-30.04 151.89-27.38 151.89-22.65L151.89-22.65Q151.89-19.23 150.59-16.19 149.29-13.15 146.5-11.25 143.71-9.35 139.29-9.35L139.29-9.35 136.19-9.35 136.19 0ZM138.69-29.8L138.69-29.8 136.19-29.8 136.19-14.6 138.84-14.6Q142.14-14.6 143.79-16.57 145.44-18.55 145.44-22.3L145.44-22.3Q145.44-26.13 143.94-27.96 142.44-29.8 138.69-29.8ZM162.58 0L156.33 0 156.33-24.9 161.98-24.9 162.28-20.5Q162.68-21.48 163.52-22.58 164.36-23.68 165.85-24.44 167.33-25.2 169.68-25.2L169.68-25.2Q170.41-25.2 170.96-25.1 171.51-25 171.98-24.8L171.98-24.8 170.58-18.25Q169.78-19.05 168.13-19.05L168.13-19.05Q166.21-19.05 164.98-18.26 163.76-17.48 163.17-16.5 162.58-15.53 162.58-15L162.58-15 162.58 0ZM185.08 0.5L185.08 0.5Q179.58 0.5 176.58-2.95 173.58-6.4 173.58-12.5L173.58-12.5Q173.58-18.65 176.68-22.08 179.78-25.5 185.28-25.5L185.28-25.5Q190.81-25.5 193.69-21.96 196.58-18.43 196.58-12.5L196.58-12.5Q196.58-6.58 193.59-3.04 190.61 0.5 185.08 0.5ZM185.18-4.5L185.18-4.5Q189.93-4.5 189.93-12.5L189.93-12.5Q189.93-20.55 185.18-20.55L185.18-20.55Q182.83-20.55 181.53-18.69 180.23-16.82 180.23-12.5L180.23-12.5Q180.23-8.2 181.53-6.35 182.83-4.5 185.18-4.5ZM209.13-28.95L202.13-28.95 202.13-35.6 209.13-35.6 209.13-28.95ZM201.08 12.5L201.08 12.5 198.93 8.7Q200.5 8.65 201.49 7.01 202.48 5.38 202.48 2.9L202.48 2.9 202.48-24.9 208.68-24.9 208.68 3.15Q208.58 7.98 206.58 10.13 204.58 12.28 201.08 12.5ZM226.28 0.65L226.28 0.65Q222.08 0.65 219.5-1.11 216.93-2.88 215.75-5.79 214.58-8.7 214.58-12.15L214.58-12.15Q214.58-15.78 215.91-18.81 217.25-21.85 219.84-23.68 222.43-25.5 226.18-25.5L226.18-25.5Q231.78-25.5 234-22.26 236.23-19.03 236.23-13.1L236.23-13.1Q236.23-12.58 236.2-11.78 236.18-10.98 236.13-10.4L236.13-10.4 221.13-10.4Q221.28-7.45 222.79-5.78 224.3-4.1 227.33-4.1L227.33-4.1Q228.88-4.1 230.65-4.79 232.43-5.48 233.28-6.45L233.28-6.45 235.28-1.7Q234.28-1.03 232.11-0.19 229.95 0.65 226.28 0.65ZM221.08-14.3L221.08-14.3 229.88-14.3Q229.88-16.93 229.41-18.31 228.95-19.7 228.15-20.23 227.35-20.75 226.33-20.75L226.33-20.75Q223.78-20.75 222.5-18.86 221.23-16.98 221.08-14.3ZM251.92 0.6L251.92 0.6Q247.95 0.6 245.45-1.19 242.95-2.98 241.76-5.93 240.57-8.88 240.57-12.35L240.57-12.35Q240.57-15.8 241.9-18.8 243.22-21.8 245.82-23.65 248.42-25.5 252.27-25.5L252.27-25.5Q254.42-25.5 256.17-25.05 257.92-24.6 259.57-23.25L259.57-23.25 257.52-17.95Q256.77-19.07 255.34-19.69 253.9-20.3 252.62-20.3L252.62-20.3Q247.17-20.3 247.17-12.4L247.17-12.4Q247.17-8.25 248.54-6.38 249.9-4.5 252.62-4.5L252.62-4.5Q254.42-4.5 255.8-5.19 257.17-5.88 257.87-6.65L257.87-6.65 259.77-2.2Q259.07-1.45 257.02-0.43 254.97 0.6 251.92 0.6ZM272.87 0.75L272.87 0.75Q268.65 0.75 267.16-1.45 265.67-3.65 265.67-8.1L265.67-8.1 265.67-19.65 262.42-19.65 262.42-24.9 265.92-24.9 266.27-30.15 271.72-32.5 271.72-24.9 277.87-24.9 277.87-19.65 271.72-19.65 271.72-8.25Q271.72-6.08 272.33-5.24 272.95-4.4 274.02-4.4L274.02-4.4Q275.12-4.4 276.35-4.98 277.57-5.55 278.27-6.15L278.27-6.15 279.47-1.1Q278.7-0.55 277.46-0.14 276.22 0.28 274.96 0.51 273.7 0.75 272.87 0.75Z" opacity="1" transform="matrix(1,0,0,1,0,0)" fill="#ffffff" class="wordmark-text-0" data-fill-palette-color="primary" id="text-0"></path></svg></g></svg></g></svg></g></svg></g></svg></g></svg></g><defs></defs></svg><rect width="395.52" height="140.9310998036271" fill="none" stroke="none" visibility="hidden"></rect></g></svg></g></svg>